#!OML:ASF H:\LiuWeirdWalks\Patient Classification 1\Patient 1\Session 1\male.ASF
:FULLY-SPECIFIED
:DEGREES
674
root 2.33753 17.9072 37.5516 2.49828 8.41874 7.19879
lowerback -3.26886 1.45689 -8.34367
upperback -0.475907 2.26757 -2.09668
thorax 1.10555 1.10449 2.59226
lowerneck -26.0015 1.05796 5.97038
upperneck 27.9747 0.923661 -5.70108
head 13.9312 0.228424 -3.13099
rclavicle 1.13556e-014 -1.39149e-015
rhumerus -22.3786 -13.8064 -71.837
rradius 42.3027
rwrist -10.9317
rhand -16.8496 2.91278
rfingers 7.12502
rthumb 9.38043 -26.8585
lclavicle 1.13556e-014 -1.39149e-015
lhumerus -33.5692 7.08719 77.1085
lradius 23.0325
lwrist 1.49853
lhand -12.1845 -5.30567
lfingers 7.12502
lthumb 13.8792 24.2112
rfemur -11.3102 -5.60911 11.3386
rtibia 37.8056
rfoot -17.9536 -21.3149
rtoes -1.53017
lfemur -8.92465 -5.60138 -26.2024
ltibia 24.2705
lfoot -8.52619 10.709
ltoes -8.05358
675
root 2.345 17.9077 37.5765 2.56901 8.29687 7.14879
lowerback -3.40813 1.38065 -8.52925
upperback -0.582102 2.17976 -2.02851
thorax 1.07305 1.06392 2.76494
lowerneck -26.0007 1.18394 6.088
upperneck 28.1367 1.08922 -5.7819
head 14.0151 0.303185 -3.15813
rclavicle 1.39242e-014 -4.87022e-015
rhumerus -22.7091 -13.5162 -72.223
rradius 41.4221
rwrist -9.61932
rhand -15.8059 3.24761
rfingers 7.12502
rthumb 10.3874 -26.4758
lclavicle 1.39242e-014 -4.87022e-015
lhumerus -33.6522 7.42037 77.113
lradius 24.0196
lwrist 2.27498
lhand -12.8486 -5.48482
lfingers 7.12502
lthumb 13.2391 24.0748
rfemur -11.2671 -5.45974 11.3979
rtibia 37.6812
rfoot -17.9973 -21.3944
rtoes -1.51655
lfemur -8.85005 -5.63316 -26.1561
ltibia 24.1728
lfoot -8.63311 10.8049
ltoes -7.96862
676
root 2.35202 17.9073 37.5998 2.70222 8.18316 7.28565
lowerback -3.5831 1.32624 -8.8332
upperback -0.673382 2.13228 -2.04553
thorax 1.07109 1.04185 2.91761
lowerneck -26.0278 1.27901 6.18509
upperneck 28.2558 1.20971 -5.84519
head 14.083 0.357913 -3.18207
rclavicle 6.45118e-015 4.1049e-014
rhumerus -23.0267 -13.3909 -72.582
rradius 40.4719
rwrist -8.28738
rhand -14.7547 3.59562
rfingers 7.12502
rthumb 11.4013 -26.0744
lclavicle 6.45118e-015 4.1049e-014
lhumerus -33.6534 7.51419 77.2103
lradius 25.0044
lwrist 3.26736
lhand -13.4573 -5.41241
lfingers 7.12502
lthumb 12.6524 24.1844
rfemur -11.3082 -5.35403 11.2494
rtibia 37.6375
rfoot -18.0574 -21.4551
rtoes -1.52354
lfemur -8.78896 -5.66881 -26.3122
ltibia 24.0071
lfoot -8.68034 10.89
ltoes -7.89119
677
root 2.35862 17.9061 37.6217 2.87707 8.07874 7.5589
lowerback -3.78187 1.1556 -9.41908
upperback -0.780773 1.94322 -2.01512
thorax 1.07168 0.949074 3.2704
lowerneck -25.9515 1.49314 6.42104
upperneck 28.3188 1.49601 -6.0476
head 14.1218 0.479501 -3.25204
rclavicle -4.42917e-015 -8.64713e-015
rhumerus -23.24 -13.0187 -72.9993
rradius 39.4232
rwrist -6.92773
rhand -13.6983 3.90199
rfingers 7.12502
rthumb 12.42 -25.709
lclavicle -4.42917e-015 -8.64713e-015
lhumerus -33.7656 7.7285 77.3044
lradius 25.9885
lwrist 4.45856
lhand -14.0303 -5.15379
lfingers 7.12502
lthumb 12.0999 24.4763
rfemur -11.4039 -5.28563 10.9482
rtibia 37.6436
rfoot -18.122 -21.4997
rtoes -1.55065
lfemur -8.74372 -5.69952 -26.6164
ltibia 23.8075
lfoot -8.68847 10.9618
ltoes -7.84206
678
root 2.36427 17.9049 37.6423 3.03721 7.98795 7.80446
lowerback -3.9586 0.966717 -10.0026
upperback -0.87442 1.72972 -1.95554
thorax 1.08022 0.843861 3.65027
lowerneck -25.9024 1.7243 6.6672
upperneck 28.3737 1.81138 -6.27911
head 14.1676 0.610098 -3.33036
rclavicle 2.91965e-015 1.38155e-014
rhumerus -23.4003 -12.658 -73.398
rradius 38.3022
rwrist -5.57171
rhand -12.6511 4.12029
rfingers 7.12502
rthumb 13.4295 -25.4268
lclavicle 2.91965e-015 1.38155e-014
lhumerus -33.8756 7.99575 77.4048
lradius 26.9716
lwrist 5.62594
lhand -14.5292 -4.74093
lfingers 7.12502
lthumb 11.6188 24.917
rfemur -11.4914 -5.21274 10.682
rtibia 37.6549
rfoot -18.1873 -21.5607
rtoes -1.56963
lfemur -8.70227 -5.71747 -26.8891
ltibia 23.6225
lfoot -8.68898 11.0207
ltoes -7.83039
679
root 2.36895 17.9044 37.6618 3.13786 7.89736 7.90471
lowerback -4.07666 0.728833 -10.529
upperback -0.962014 1.44168 -1.79996
thorax 1.07626 0.702466 4.09381
lowerneck -25.8481 2.01656 6.96406
upperneck 28.4262 2.21679 -6.57375
head 14.2232 0.775911 -3.42611
rclavicle 1.56263e-014 1.93815e-014
rhumerus -23.4838 -12.1761 -73.8048
rradius 37.1015
rwrist -4.24034
rhand -11.617 4.24311
rfingers 7.12502
rthumb 14.426 -25.2355
lclavicle 1.56263e-014 1.93815e-014
lhumerus -34.0424 8.44745 77.4706
lradius 27.9327
lwrist 6.71224
lhand -14.9703 -4.24585
lfingers 7.12502
lthumb 11.1934 25.4356
rfemur -11.5221 -5.08905 10.5836
rtibia 37.6308
rfoot -18.243 -21.6568
rtoes -1.58009
lfemur -8.65497 -5.71874 -27.0046
ltibia 23.4994
lfoot -8.71414 11.0869
ltoes -7.83284
